<svg width="290" height="290" viewBox="0 0 290 290" fill="none" xmlns="http://www.w3.org/2000/svg">
    <defs>
        <linearGradient id="paint0_linear_43_2134" x1="78.2416" y1="212.256" x2="104.929" y2="239.422" gradientUnits="userSpaceOnUse">
            <stop offset="0.08" stop-color="#FFFF93"/>
            <stop offset="0.23" stop-color="#FFFC8D"/>
            <stop offset="0.44" stop-color="#FEF47B"/>
            <stop offset="0.68" stop-color="#FDE65E"/>
            <stop offset="0.94" stop-color="#FCD436"/>
            <stop offset="1" stop-color="#FCCF2C"/>
        </linearGradient>
        <linearGradient id="paint1_linear_43_2134" x1="41500.9" y1="59546.8" x2="44126" y2="61003.8" gradientUnits="userSpaceOnUse">
            <stop offset="0.08" stop-color="#FFFF93"/>
            <stop offset="0.23" stop-color="#FFFC8D"/>
            <stop offset="0.44" stop-color="#FEF47B"/>
            <stop offset="0.68" stop-color="#FDE65E"/>
            <stop offset="0.94" stop-color="#FCD436"/>
            <stop offset="1" stop-color="#FCCF2C"/>
        </linearGradient>
        <linearGradient id="paint2_linear_43_2134" x1="107.367" y1="117.158" x2="174.386" y2="117.158" gradientUnits="userSpaceOnUse">
            <stop offset="0.08" stop-color="#FFF257"/>
            <stop offset="1" stop-color="#FCCF2C"/>
        </linearGradient>
        <linearGradient id="paint3_linear_43_2134" x1="144.597" y1="120.578" x2="236.353" y2="120.578" gradientUnits="userSpaceOnUse">
            <stop stop-color="#FBC01E"/>
            <stop offset="0.46" stop-color="#FDC822"/>
            <stop offset="1" stop-color="#FCE13C"/>
        </linearGradient>
    </defs>
    <path d="M138.759 24H231.953C232.483 24.0029 233.003 24.1486 233.455 24.4211C233.908 24.6936 234.276 25.0826 234.519 25.5459C234.762 26.0092 234.872 26.5291 234.835 27.0492C234.799 27.5693 234.619 28.0698 234.314 28.4963L175.141 110.285C174.838 110.712 174.659 111.211 174.624 111.73C174.589 112.249 174.699 112.768 174.942 113.23C175.185 113.692 175.552 114.08 176.003 114.352C176.455 114.624 176.973 114.77 177.502 114.774H234.001C234.562 114.778 235.11 114.942 235.579 115.245C236.047 115.549 236.416 115.979 236.641 116.484C236.866 116.988 236.938 117.547 236.847 118.09C236.756 118.634 236.507 119.141 236.13 119.549L80.0078 264.007L140.938 161.635C141.141 161.198 141.228 160.719 141.193 160.24C141.157 159.762 140.998 159.3 140.733 158.897C140.467 158.494 140.102 158.164 139.672 157.937C139.242 157.709 138.761 157.592 138.272 157.596L89.0889 158.231C88.6176 158.235 88.1524 158.126 87.7335 157.914C87.3146 157.701 86.9545 157.392 86.6842 157.013C86.4139 156.634 86.2416 156.196 86.1822 155.736C86.1227 155.277 86.1778 154.811 86.3428 154.377L136.049 25.8342C136.259 25.2952 136.63 24.8314 137.114 24.504C137.598 24.1765 138.171 24.0008 138.759 24Z" fill="#FF782D"/>
<path d="M202.627 126.465H146.121C145.592 126.46 145.075 126.313 144.625 126.04C144.174 125.768 143.808 125.379 143.566 124.917C143.324 124.456 143.215 123.937 143.25 123.419C143.286 122.901 143.464 122.402 143.767 121.976L202.932 40.1869C203.237 39.7604 203.417 39.26 203.454 38.7399C203.49 38.2198 203.38 37.6999 203.137 37.2366C202.894 36.7733 202.526 36.3843 202.074 36.1118C201.621 35.8393 201.101 35.6936 200.571 35.6907H107.392C106.805 35.6915 106.231 35.8672 105.747 36.1947C105.264 36.5221 104.892 36.9859 104.682 37.5249L54.9763 166.067C54.8114 166.501 54.7562 166.968 54.8157 167.427C54.8752 167.886 55.0476 168.324 55.3178 168.704C55.5881 169.083 55.9482 169.392 56.3671 169.604C56.786 169.816 57.2512 169.925 57.7225 169.921L106.898 169.286C107.387 169.282 107.87 169.399 108.301 169.627C108.732 169.855 109.097 170.186 109.363 170.59C109.629 170.993 109.787 171.456 109.822 171.936C109.857 172.415 109.769 172.896 109.564 173.333L69.9201 257.377C66.9779 263.621 75.2598 269.067 80.011 264.007L204.763 131.261C205.147 130.853 205.403 130.344 205.497 129.796C205.592 129.248 205.521 128.685 205.294 128.175C205.067 127.666 204.694 127.233 204.22 126.929C203.746 126.625 203.193 126.464 202.627 126.465Z" fill="#FFCD01"/>
<g opacity="0.4">
<path opacity="0.4" d="M99.295 243.48L102.39 188.54L77.9873 240.254L81.271 262.664L99.295 243.48Z" fill="url(#paint0_linear_43_2134)"/>
<path opacity="0.4" d="M63.7959 143.257L67.6828 169.799L95.7259 169.435L75.7761 112.268L63.7959 143.257Z" fill="url(#paint1_linear_43_2134)"/>
</g>
<path opacity="0.4" d="M174.386 126.465H146.132C145.604 126.46 145.086 126.313 144.636 126.04C144.186 125.768 143.82 125.379 143.578 124.917C143.335 124.456 143.226 123.937 143.262 123.419C143.297 122.901 143.476 122.402 143.779 121.976L147.585 116.709L127.679 35.6907H107.403C106.255 35.6907 141.454 198.633 141.454 198.633L150.935 188.534L174.386 126.465Z" fill="url(#paint2_linear_43_2134)"/>
<path d="M106.312 35.8975L137.871 24.1431L232.242 24.0075C232.768 24.036 233.274 24.2155 233.698 24.5237C234.121 24.832 234.444 25.2554 234.625 25.7417L203.298 37.4889L106.312 35.8975Z" fill="#FCE13C"/>
<path d="M106.312 35.8975L137.871 24.1431L232.242 24.0075C232.768 24.036 233.274 24.2155 233.698 24.5237C234.121 24.832 234.444 25.2554 234.625 25.7417L203.298 37.4889L106.312 35.8975Z" fill="#FCE13C"/>
<path d="M144.597 126.045L175.996 114.369C176.651 114.689 177.381 114.829 178.11 114.776H234.21C234.644 114.787 235.069 114.901 235.449 115.108C235.829 115.316 236.151 115.611 236.39 115.967L204.017 126.787C203.609 126.583 203.159 126.474 202.702 126.466H146.035C145.525 126.461 145.026 126.315 144.597 126.045Z" fill="url(#paint3_linear_43_2134)"/>
<path d="M202.627 126.463C197.919 126.806 193.182 126.984 188.496 127.098C183.811 127.213 179.052 127.27 174.374 127.284C169.695 127.298 164.929 127.234 160.251 127.106C155.572 126.977 150.806 126.806 146.121 126.463C150.835 126.128 155.565 125.949 160.251 125.828C164.937 125.707 169.695 125.664 174.374 125.65C179.052 125.635 183.818 125.7 188.496 125.828C193.175 125.956 197.919 126.156 202.627 126.463Z" fill="#FFFFFD"/>
<path d="M71.4067 123.572C68.7188 131.414 65.9291 139.224 63.0378 147.003C61.5848 150.9 60.1319 154.775 58.6789 158.657L56.4995 164.474L55.9402 165.901L55.8021 166.265C55.7513 166.387 55.744 166.458 55.7077 166.551C55.664 166.731 55.6421 166.915 55.6423 167.1C55.6555 167.471 55.7705 167.831 55.9751 168.143C56.1798 168.454 56.4664 168.706 56.8046 168.87C56.9705 168.956 57.1497 169.014 57.335 169.042C57.4252 169.064 57.5179 169.076 57.611 169.077H57.9597H59.5362L62.6963 169.042L69.0167 168.984C73.2303 168.984 77.4438 168.942 81.6501 168.984C90.0772 168.984 98.5042 169.087 106.931 169.291C98.5139 169.72 90.0941 170.041 81.6718 170.255C77.4583 170.39 73.2447 170.455 69.0384 170.555L62.7182 170.662L59.558 170.712H57.9815C57.858 170.712 57.72 170.712 57.5384 170.712C57.3673 170.711 57.1968 170.691 57.0299 170.654C56.6967 170.599 56.3735 170.496 56.0709 170.348C55.4617 170.049 54.9469 169.593 54.582 169.028C54.2172 168.464 54.0161 167.812 54.0005 167.143C53.9952 166.809 54.0343 166.475 54.1167 166.151C54.1676 166.001 54.2257 165.816 54.2693 165.702L54.4073 165.338L54.9739 163.91L57.2478 158.115C58.7806 154.268 60.2917 150.4 61.8609 146.56C64.9314 138.857 68.1134 131.195 71.4067 123.572Z" fill="#FFFFFD"/>
<path d="M200.66 37.4383C192.877 37.6096 185.098 37.6762 177.325 37.6381C169.552 37.6381 161.778 37.5097 154.005 37.3812C146.231 37.2528 138.458 37.0387 130.692 36.7675C122.926 36.4963 115.152 36.1537 107.386 35.6898C115.135 35.5186 122.911 35.4519 130.714 35.49C138.487 35.49 146.26 35.6184 154.034 35.7469C161.807 35.8754 169.581 36.0895 177.354 36.3607C185.128 36.6319 192.894 36.9458 200.66 37.4383Z" fill="#FFFFFD"/>
<path opacity="0.6" d="M195.72 50.1712L202.941 40.1796C203.256 39.8096 203.455 39.3579 203.514 38.8792C203.574 38.4005 203.491 37.9152 203.275 37.4818L107.378 35.6833C106.791 35.6841 106.217 35.8598 105.734 36.1873C105.25 36.5147 104.878 36.9785 104.668 37.5175L76.96 109.165C98.2535 76.6133 145.65 48.0587 195.72 50.1712Z" fill="#FFEB41"/>
<path opacity="0.6" d="M109.575 173.333L69.9304 257.377C66.9881 263.622 75.27 269.067 80.0212 264.007L90.5697 252.781C82.898 247.143 89.233 226.131 109.575 173.333Z" fill="#FFEB41"/>
<path opacity="0.6" d="M119.027 31.1741C136.957 27.1346 165.922 24.3868 232.519 24.037H232.279L137.908 24.1727L119.027 31.1741Z" fill="#FFEB41"/>
</svg>
