<svg width="12" height="12" viewBox="0 0 12 12" fill="none" xmlns="http://www.w3.org/2000/svg">
<path fill-rule="evenodd" clip-rule="evenodd" d="M1.28602 1.28588C1.80672 0.765181 2.65094 0.765181 3.17164 1.28588L6.00011 4.11435L8.82846 1.286C9.34916 0.765305 10.1934 0.765305 10.7141 1.286C11.2348 1.8067 11.2348 2.65092 10.7141 3.17162L7.88573 5.99997L10.7141 8.82835C11.2348 9.34905 11.2348 10.1933 10.7141 10.714C10.1934 11.2347 9.34919 11.2347 8.82849 10.714L6.00011 7.88559L3.1716 10.7141C2.65091 11.2348 1.80669 11.2348 1.28599 10.7141C0.765287 10.1934 0.765287 9.34917 1.28599 8.82847L4.11449 5.99997L1.28602 3.1715C0.765319 2.6508 0.765318 1.80658 1.28602 1.28588Z" fill="white"/>
</svg>
