<svg width="36" height="66" viewBox="0 0 36 66" fill="none" xmlns="http://www.w3.org/2000/svg">
<path fill-rule="evenodd" clip-rule="evenodd" d="M24.04 59.5C24.04 56.2553 21.4097 53.625 18.165 53.625C14.9203 53.625 12.29 56.2553 12.29 59.5C12.29 62.7447 14.9203 65.375 18.165 65.375C21.4097 65.375 24.04 62.7447 24.04 59.5ZM18.165 0.75C23.6759 0.75 28.2408 2.875 31.3685 6.39374C34.4002 9.80435 35.79 14.1857 35.79 18.375C35.79 25.7424 31.4774 30.8306 28.6732 34.1392L28.5232 34.3162C25.2101 38.2281 24.04 39.8769 24.04 41.875C24.04 45.1197 21.4097 47.75 18.165 47.75C14.9203 47.75 12.29 45.1197 12.29 41.875C12.29 35.2153 16.4264 30.3822 19.0542 27.3117C19.2289 27.1074 19.3971 26.911 19.5568 26.7223C22.6344 23.0886 24.04 21.0271 24.04 18.375C24.04 16.6893 23.4715 15.1956 22.5865 14.2C21.7976 13.3125 20.4875 12.5 18.165 12.5C15.8426 12.5 14.5324 13.3125 13.7435 14.2C12.8585 15.1956 12.29 16.6893 12.29 18.375C12.29 21.6197 9.65968 24.25 6.41501 24.25C3.17034 24.25 0.540005 21.6197 0.540005 18.375C0.540005 14.1857 1.92982 9.80435 4.96148 6.39374C8.08925 2.875 12.6541 0.75 18.165 0.75Z" fill="white"/>
</svg>
