<svg width="22" height="22" viewBox="0 0 22 22" fill="none" xmlns="http://www.w3.org/2000/svg">
<path d="M2.10066 0.109822C1.55439 -0.146584 0.890135 0.0612903 0.61697 0.574102C0.343868 1.08688 0.565286 1.71047 1.11155 1.96688L2.22127 2.48775C2.56382 2.64853 2.79338 2.96424 2.82807 3.32228C2.85513 3.60154 2.88136 3.87825 2.90727 4.15224L2.91034 4.18485C3.5317 10.7546 4.00076 15.7143 12.0566 15.7143C20.4614 15.7143 21.0175 10.1148 21.5 5.2381C21.5 4.65952 21.0297 4.19048 20.4494 4.19048H6.04448C5.52508 4.19048 5.09326 3.79273 5.04425 3.27565C5.0398 3.22863 5.03528 3.18152 5.03071 3.13432C4.92664 2.0602 4.23802 1.11307 3.21038 0.630722L2.10066 0.109822Z" fill="white"/>
<path d="M9 22C10.1604 22 11.1012 21.0619 11.1012 19.9048C11.1012 18.7476 10.1604 17.8095 9 17.8095C7.83956 17.8095 6.8988 18.7476 6.8988 19.9048C6.8988 21.0619 7.83956 22 9 22Z" fill="white"/>
<path d="M17.3036 19.9048C17.3036 21.0619 16.3628 22 15.2024 22C14.042 22 13.1012 21.0619 13.1012 19.9048C13.1012 18.7476 14.042 17.8095 15.2024 17.8095C16.3628 17.8095 17.3036 18.7476 17.3036 19.9048Z" fill="white"/>
</svg>
